<svg width="40" height="40" viewBox="0 0 40 40" fill="none" xmlns="http://www.w3.org/2000/svg">
<path d="M22.8321 18.5511C24.5255 18.5511 26.1809 18.0489 27.5889 17.1081C28.9969 16.1673 30.0943 14.8301 30.7424 13.2656C31.3904 11.7011 31.56 9.97954 31.2296 8.31867C30.8992 6.6578 30.0838 5.13219 28.8864 3.93477C27.6889 2.73735 26.1633 1.92189 24.5025 1.59152C22.8416 1.26115 21.1201 1.43071 19.5555 2.07875C17.991 2.72679 16.6538 3.82421 15.713 5.23223C14.7722 6.64025 14.2701 8.29563 14.2701 9.98904C14.2701 12.2598 15.1721 14.4376 16.7778 16.0433C18.3835 17.649 20.5613 18.5511 22.8321 18.5511ZM17.5379 8.97587C17.6706 8.84211 17.8284 8.73595 18.0023 8.66351C18.1762 8.59106 18.3627 8.55376 18.5511 8.55376C18.7395 8.55376 18.926 8.59106 19.0999 8.66351C19.2738 8.73595 19.4316 8.84211 19.5642 8.97587L21.4051 10.831L25.3436 6.87817C25.4767 6.74512 25.6346 6.63957 25.8085 6.56757C25.9823 6.49556 26.1686 6.4585 26.3568 6.4585C26.545 6.4585 26.7313 6.49556 26.9051 6.56757C27.079 6.63957 27.2369 6.74512 27.37 6.87817C27.503 7.01122 27.6086 7.16918 27.6806 7.34302C27.7526 7.51686 27.7896 7.70318 27.7896 7.89134C27.7896 8.07951 27.7526 8.26583 27.6806 8.43967C27.6086 8.61351 27.503 8.77146 27.37 8.90451L22.4183 13.8562C22.2856 13.99 22.1278 14.0961 21.9539 14.1686C21.78 14.241 21.5935 14.2783 21.4051 14.2783C21.2167 14.2783 21.0302 14.241 20.8563 14.1686C20.6824 14.0961 20.5246 13.99 20.3919 13.8562L17.5379 11.0022C17.4041 10.8696 17.298 10.7117 17.2255 10.5378C17.1531 10.3639 17.1158 10.1774 17.1158 9.98904C17.1158 9.80066 17.1531 9.61414 17.2255 9.44025C17.298 9.26635 17.4041 9.10852 17.5379 8.97587ZM12.0011 27.1131H31.9792C32.9334 27.1132 33.8602 26.7944 34.6126 26.2076C35.3649 25.6207 35.8996 24.7993 36.1318 23.8738L39.9562 8.90451C40.0096 8.6939 40.0142 8.47386 39.9697 8.26118C39.9252 8.0485 39.8327 7.84879 39.6993 7.67729C39.5605 7.50139 39.3823 7.36063 39.179 7.26643C38.9757 7.17222 38.7531 7.1272 38.5292 7.13503H33.8771C34.1172 8.06758 34.2418 9.0261 34.2481 9.98904C34.2481 13.0168 33.0454 15.9205 30.9045 18.0614C28.7635 20.2023 25.8598 21.4051 22.8321 21.4051C19.8044 21.4051 16.9007 20.2023 14.7597 18.0614C12.6188 15.9205 11.416 13.0168 11.416 9.98904C11.4224 9.0261 11.547 8.06758 11.7871 7.13503H8.56203L7.62021 3.29638C7.39842 2.35793 6.86629 1.52185 6.11003 0.923571C5.35376 0.325292 4.41766 -0.000137564 3.45335 4.36226e-08H1.42701C1.04854 4.36226e-08 0.685576 0.150345 0.41796 0.41796C0.150345 0.685576 0 1.04854 0 1.42701C0 1.80547 0.150345 2.16844 0.41796 2.43605C0.685576 2.70367 1.04854 2.85401 1.42701 2.85401H3.45335C3.78127 2.84524 4.10219 2.94972 4.3621 3.14985C4.62201 3.34998 4.80503 3.63354 4.88036 3.95281L9.84634 25.2437L8.1482 26.9419C7.55025 27.5406 7.14313 28.303 6.97826 29.133C6.81338 29.9629 6.89816 30.8231 7.22187 31.6049C7.54557 32.3867 8.0937 33.055 8.79702 33.5255C9.50034 33.9959 10.3273 34.2474 11.1735 34.2481C10.9598 34.8369 10.878 35.4654 10.9337 36.0893C10.9894 36.7132 11.1814 37.3172 11.496 37.8588C11.8107 38.4004 12.2403 38.8663 12.7546 39.2238C13.269 39.5812 13.8555 39.8215 14.4728 39.9275C15.0901 40.0336 15.7232 40.0029 16.3273 39.8377C16.9315 39.6724 17.492 39.3766 17.9694 38.9711C18.4467 38.5655 18.8293 38.0602 19.0901 37.4907C19.3509 36.9212 19.4835 36.3015 19.4786 35.6751C19.4768 35.1868 19.3849 34.7031 19.2075 34.2481H24.4731C24.2385 34.8948 24.163 35.5884 24.2533 36.2704C24.3435 36.9523 24.5968 37.6025 24.9916 38.1658C25.3864 38.7291 25.9112 39.189 26.5214 39.5065C27.1316 39.824 27.8094 39.9897 28.4973 39.9897C29.1852 39.9897 29.863 39.824 30.4732 39.5065C31.0834 39.189 31.6082 38.7291 32.003 38.1658C32.3978 37.6025 32.6511 36.9523 32.7413 36.2704C32.8316 35.5884 32.7562 34.8948 32.5215 34.2481H35.6751C36.0536 34.2481 36.4166 34.0978 36.6842 33.8302C36.9518 33.5626 37.1021 33.1996 37.1021 32.8211C37.1021 32.4427 36.9518 32.0797 36.6842 31.8121C36.4166 31.5445 36.0536 31.3941 35.6751 31.3941H11.1735C10.89 31.3958 10.6125 31.313 10.3763 31.1563C10.1401 30.9996 9.95593 30.7761 9.84724 30.5143C9.73855 30.2526 9.71028 29.9644 9.76603 29.6865C9.82178 29.4085 9.95903 29.1535 10.1603 28.9539L12.0011 27.1131ZM28.5401 34.2481C28.8224 34.2481 29.0982 34.3318 29.3329 34.4886C29.5676 34.6454 29.7505 34.8683 29.8585 35.1291C29.9665 35.3898 29.9948 35.6767 29.9397 35.9535C29.8846 36.2303 29.7487 36.4846 29.5492 36.6842C29.3496 36.8838 29.0953 37.0197 28.8185 37.0747C28.5417 37.1298 28.2548 37.1015 27.994 36.9935C27.7333 36.8855 27.5104 36.7026 27.3536 36.4679C27.1968 36.2333 27.1131 35.9574 27.1131 35.6751C27.1131 35.2967 27.2635 34.9337 27.5311 34.6661C27.7987 34.3985 28.1616 34.2481 28.5401 34.2481ZM15.2404 34.2481C15.5227 34.2481 15.7986 34.3318 16.0332 34.4886C16.2679 34.6454 16.4508 34.8683 16.5588 35.1291C16.6668 35.3898 16.6951 35.6767 16.64 35.9535C16.5849 36.2303 16.449 36.4846 16.2495 36.6842C16.0499 36.8838 15.7956 37.0197 15.5188 37.0747C15.242 37.1298 14.9551 37.1015 14.6943 36.9935C14.4336 36.8855 14.2107 36.7026 14.0539 36.4679C13.8971 36.2333 13.8134 35.9574 13.8134 35.6751C13.8134 35.2967 13.9638 34.9337 14.2314 34.6661C14.499 34.3985 14.862 34.2481 15.2404 34.2481Z" fill="#039F54"/>
</svg>
